<svg xmlns="http://www.w3.org/2000/svg" xmlns:xlink="http://www.w3.org/1999/xlink" width="1024" zoomAndPan="magnify" viewBox="0 0 768 767.999994" height="1024" preserveAspectRatio="xMidYMid meet" version="1.0"><defs><g/><clipPath id="acdd2791e5"><path d="M 0 0 L 766.773438 0 L 766.773438 768 L 0 768 Z M 0 0 " clip-rule="nonzero"/></clipPath><clipPath id="dfeabc599d"><path d="M 36 0 L 730.773438 0 C 750.65625 0 766.773438 16.117188 766.773438 36 L 766.773438 732 C 766.773438 751.882812 750.65625 768 730.773438 768 L 36 768 C 16.117188 768 0 751.882812 0 732 L 0 36 C 0 16.117188 16.117188 0 36 0 Z M 36 0 " clip-rule="nonzero"/></clipPath><clipPath id="235c4e4272"><path d="M 497 290 L 575 290 L 575 359.765625 L 497 359.765625 Z M 497 290 " clip-rule="nonzero"/></clipPath><clipPath id="b5997d8f32"><path d="M 500.996094 301.828125 C 492.492188 312.351562 499.15625 322.597656 504.671875 328.035156 L 536.902344 359.765625 L 568.457031 328.148438 C 573.582031 322.300781 576.121094 316.09375 574.457031 309.1875 C 572.949219 299.628906 565.273438 292.214844 555.792969 291.15625 C 549.976562 290.308594 544.359375 292.203125 539.976562 295.941406 C 538.792969 296.945312 537.738281 298.070312 536.820312 299.292969 C 535.730469 297.902344 534.449219 296.628906 533.003906 295.5 C 527.960938 291.570312 521.542969 289.460938 515.378906 291.222656 C 509.542969 292.378906 504.300781 296.242188 500.996094 301.828125 Z M 500.996094 301.828125 " clip-rule="nonzero"/></clipPath></defs><g clip-path="url(#acdd2791e5)"><g clip-path="url(#dfeabc599d)"><path fill="#ffffff" d="M 0 0 L 766.773438 0 L 766.773438 768 L 0 768 Z M 0 0 " fill-opacity="1" fill-rule="nonzero"/></g></g><g fill="#000000" fill-opacity="1"><g transform="translate(51.610962, 455.864871)"><g><path d="M 98.875 -93.6875 C 97.820312 -98.195312 95.519531 -102.78125 91.96875 -107.4375 C 88.414062 -112.101562 85.421875 -114.992188 82.984375 -116.109375 C 80.554688 -117.222656 74.5625 -117.78125 65 -117.78125 L 44.15625 -117.78125 L 44.15625 -67.734375 L 58.40625 -67.734375 C 66.09375 -67.734375 71.398438 -69.414062 74.328125 -72.78125 C 77.265625 -76.15625 79.082031 -81.25 79.78125 -88.0625 L 86.46875 -88.0625 L 86.46875 -39.0625 L 79.78125 -39.0625 C 79.082031 -45.800781 77.441406 -51.0625 74.859375 -54.84375 C 72.273438 -58.625 66.789062 -60.515625 58.40625 -60.515625 L 44.15625 -60.515625 L 44.15625 -17.6875 C 44.15625 -14.632812 45.003906 -12.171875 46.703125 -10.296875 C 48.410156 -8.421875 53.367188 -7.097656 61.578125 -6.328125 L 61.578125 0 L 7.5625 0 L 7.5625 -6.328125 C 14.25 -6.859375 18.3125 -7.253906 19.75 -7.515625 C 21.1875 -7.785156 22.488281 -8.679688 23.65625 -10.203125 C 24.832031 -11.722656 25.421875 -13.832031 25.421875 -16.53125 L 25.421875 -106.609375 C 25.421875 -110.722656 23.851562 -113.628906 20.71875 -115.328125 C 17.582031 -117.023438 13.195312 -118.109375 7.5625 -118.578125 L 7.5625 -124.828125 L 105.390625 -124.828125 L 105.390625 -93.6875 Z M 98.875 -93.6875 "/></g></g></g><g fill="#000000" fill-opacity="1"><g transform="translate(159.537811, 455.864871)"><g><path d="M 88.5 -1.578125 C 82.394531 0.648438 77.644531 1.765625 74.25 1.765625 C 65.039062 1.765625 59.613281 -2.425781 57.96875 -10.8125 L 57.4375 -10.8125 C 49.644531 -2.132812 40.289062 2.203125 29.375 2.203125 C 22.863281 2.203125 17.507812 0.222656 13.3125 -3.734375 C 9.125 -7.691406 7.03125 -12.925781 7.03125 -19.4375 C 7.03125 -26.707031 9.023438 -32.265625 13.015625 -36.109375 C 17.003906 -39.953125 23.867188 -43.484375 33.609375 -46.703125 C 47.503906 -51.285156 55.507812 -54.21875 57.625 -55.5 L 57.625 -64.125 C 57.625 -69.164062 56.226562 -73.519531 53.4375 -77.1875 C 50.65625 -80.851562 46.535156 -82.6875 41.078125 -82.6875 C 35.453125 -82.6875 31.316406 -81.304688 28.671875 -78.546875 C 28.671875 -77.085938 28.9375 -75.359375 29.46875 -73.359375 C 30 -71.367188 30.265625 -69.257812 30.265625 -67.03125 C 30.265625 -64.738281 29.25 -62.816406 27.21875 -61.265625 C 25.195312 -59.710938 22.722656 -58.9375 19.796875 -58.9375 C 14.160156 -58.9375 11.34375 -62.28125 11.34375 -68.96875 C 11.34375 -74.1875 14.625 -78.863281 21.1875 -83 C 27.757812 -87.132812 34.742188 -89.203125 42.140625 -89.203125 C 54.160156 -89.203125 62.515625 -86.835938 67.203125 -82.109375 C 71.898438 -77.390625 74.25 -70.191406 74.25 -60.515625 L 73.71875 -17.15625 C 73.71875 -13.988281 74.460938 -11.640625 75.953125 -10.109375 C 77.453125 -8.585938 78.800781 -7.722656 80 -7.515625 C 81.207031 -7.316406 84.039062 -7.21875 88.5 -7.21875 Z M 57.796875 -48.125 C 45.015625 -44.363281 36.304688 -40.488281 31.671875 -36.5 C 27.035156 -32.519531 24.71875 -27.566406 24.71875 -21.640625 C 24.71875 -12.253906 29.203125 -7.5625 38.171875 -7.5625 C 45.097656 -7.5625 51.460938 -10.9375 57.265625 -17.6875 Z M 57.796875 -48.125 "/></g></g></g><g fill="#000000" fill-opacity="1"><g transform="translate(250.312466, 455.864871)"><g><path d="M 92.09375 -81.453125 C 88.695312 -80.691406 85.984375 -79.535156 83.953125 -77.984375 C 81.929688 -76.429688 80.4375 -74.800781 79.46875 -73.09375 C 78.507812 -71.394531 75.066406 -63.628906 69.140625 -49.796875 L 56.296875 -19.796875 C 53.660156 -13.753906 51.171875 -6.921875 48.828125 0.703125 L 41.78125 0.703125 C 23.664062 -44.390625 13.421875 -69.003906 11.046875 -73.140625 C 8.671875 -77.273438 4.460938 -79.867188 -1.578125 -80.921875 L -1.578125 -86.640625 L 38.359375 -86.640625 L 38.359375 -80.484375 C 31.378906 -80.078125 27.890625 -78.816406 27.890625 -76.703125 L 50.046875 -21.8125 L 65 -57.625 C 68.988281 -67.175781 70.984375 -72.773438 70.984375 -74.421875 C 70.984375 -77.523438 66.96875 -79.753906 58.9375 -81.109375 L 58.9375 -86.640625 L 92.09375 -86.640625 Z M 92.09375 -81.453125 "/></g></g></g><g fill="#000000" fill-opacity="1"><g transform="translate(339.855694, 455.864871)"><g><path d="M 47.765625 2.734375 C 36.148438 2.734375 26.3125 -1.546875 18.25 -10.109375 C 10.1875 -18.671875 6.15625 -29.640625 6.15625 -43.015625 C 6.15625 -56.617188 10.097656 -67.71875 17.984375 -76.3125 C 25.878906 -84.90625 36.21875 -89.203125 49 -89.203125 C 61.425781 -89.203125 71.492188 -85.019531 79.203125 -76.65625 C 86.921875 -68.300781 90.78125 -57.523438 90.78125 -44.328125 C 90.78125 -30.609375 86.847656 -19.332031 78.984375 -10.5 C 71.128906 -1.675781 60.722656 2.734375 47.765625 2.734375 Z M 48.828125 -82.515625 C 40.910156 -82.515625 34.835938 -79.066406 30.609375 -72.171875 C 26.390625 -65.285156 24.28125 -56.066406 24.28125 -44.515625 C 24.28125 -32.253906 26.40625 -22.425781 30.65625 -15.03125 C 34.90625 -7.644531 40.960938 -3.953125 48.828125 -3.953125 C 56.328125 -3.953125 62.160156 -7.617188 66.328125 -14.953125 C 70.492188 -22.285156 72.578125 -32.019531 72.578125 -44.15625 C 72.578125 -56 70.535156 -65.351562 66.453125 -72.21875 C 62.378906 -79.082031 56.503906 -82.515625 48.828125 -82.515625 Z M 48.828125 -82.515625 "/></g></g></g><g fill="#000000" fill-opacity="1"><g transform="translate(436.963464, 455.864871)"><g><path d="M 54.625 -78.90625 C 46.882812 -78.5 40.492188 -74.25 35.453125 -66.15625 L 35.453125 -15.65625 C 35.453125 -12.488281 36.460938 -10.171875 38.484375 -8.703125 C 40.503906 -7.242188 45.035156 -6.28125 52.078125 -5.8125 L 52.078125 0 L 6.328125 0 L 6.328125 -5.8125 L 10.5625 -6.25 C 16.25 -6.65625 19.09375 -9.5 19.09375 -14.78125 L 19.09375 -68.265625 C 19.09375 -75.890625 14.515625 -79.847656 5.359375 -80.140625 L 5.359375 -85.9375 L 34.21875 -87.703125 L 35.453125 -86.46875 L 35.453125 -74.421875 L 35.890625 -74.421875 C 43.453125 -84.035156 51.546875 -88.84375 60.171875 -88.84375 C 63.867188 -88.84375 66.890625 -87.65625 69.234375 -85.28125 C 71.578125 -82.90625 72.75 -79.632812 72.75 -75.46875 C 72.75 -72.132812 71.941406 -69.410156 70.328125 -67.296875 C 68.710938 -65.179688 66.53125 -64.125 63.78125 -64.125 C 60.726562 -64.125 58.273438 -64.898438 56.421875 -66.453125 C 54.578125 -68.015625 53.65625 -69.9375 53.65625 -72.21875 C 53.65625 -73.976562 53.976562 -76.207031 54.625 -78.90625 Z M 54.625 -78.90625 "/></g></g></g><g fill="#000000" fill-opacity="1"><g transform="translate(510.849811, 455.864871)"><g><path d="M 25.953125 -109.515625 C 23.015625 -109.515625 20.445312 -110.671875 18.25 -112.984375 C 16.050781 -115.304688 14.953125 -118.050781 14.953125 -121.21875 C 14.953125 -124.445312 16.035156 -127.273438 18.203125 -129.703125 C 20.378906 -132.140625 22.960938 -133.359375 25.953125 -133.359375 C 29.234375 -133.359375 31.972656 -132.210938 34.171875 -129.921875 C 36.367188 -127.640625 37.46875 -124.972656 37.46875 -121.921875 C 37.46875 -118.578125 36.351562 -115.671875 34.125 -113.203125 C 31.894531 -110.742188 29.171875 -109.515625 25.953125 -109.515625 Z M 6.515625 0 L 6.515625 -5.8125 L 10.734375 -6.25 C 16.421875 -6.65625 19.265625 -9.5 19.265625 -14.78125 L 19.265625 -68.265625 C 19.265625 -75.421875 14.101562 -79.378906 3.78125 -80.140625 L 3.78125 -85.9375 L 34.390625 -87.703125 L 35.71875 -86.46875 L 35.71875 -15.828125 C 35.71875 -12.484375 36.753906 -10.109375 38.828125 -8.703125 C 40.910156 -7.296875 44.125 -6.332031 48.46875 -5.8125 L 48.46875 0 Z M 6.515625 0 "/></g></g></g><g fill="#000000" fill-opacity="1"><g transform="translate(563.625773, 455.864871)"><g><path d="M 60 -3.78125 C 51.550781 -0.0820312 43.75 1.765625 36.59375 1.765625 C 23.34375 1.765625 16.71875 -5.1875 16.71875 -19.09375 L 16.71875 -78.03125 L 1.0625 -78.03125 L 1.0625 -86.296875 L 17.15625 -86.296875 L 17.15625 -113.296875 L 33.15625 -113.296875 L 33.15625 -86.296875 L 57.96875 -86.296875 L 57.96875 -78.03125 L 33.34375 -78.03125 L 33.34375 -29.5625 C 33.34375 -21.519531 34.25 -16.046875 36.0625 -13.140625 C 37.882812 -10.242188 41.671875 -8.796875 47.421875 -8.796875 C 52.398438 -8.796875 56.59375 -9.296875 60 -10.296875 Z M 60 -3.78125 "/></g></g></g><g fill="#000000" fill-opacity="1"><g transform="translate(625.813429, 455.864871)"><g><path d="M 83.390625 -20.328125 C 75.296875 -5.191406 63.421875 2.375 47.765625 2.375 C 34.742188 2.375 24.582031 -1.890625 17.28125 -10.421875 C 9.976562 -18.953125 6.328125 -30.195312 6.328125 -44.15625 C 6.328125 -56.46875 10.035156 -67.050781 17.453125 -75.90625 C 24.878906 -84.769531 34.367188 -89.203125 45.921875 -89.203125 C 57.359375 -89.203125 66.109375 -85.875 72.171875 -79.21875 C 78.242188 -72.5625 81.28125 -63.457031 81.28125 -51.90625 L 81.28125 -46.09375 L 23.75 -46.09375 C 23.75 -33.78125 26.253906 -24.25 31.265625 -17.5 C 36.285156 -10.757812 43.457031 -7.390625 52.78125 -7.390625 C 57.9375 -7.390625 62.347656 -8.53125 66.015625 -10.8125 C 69.679688 -13.101562 73.453125 -17.535156 77.328125 -24.109375 Z M 63.953125 -53.484375 C 63.953125 -72.835938 57.882812 -82.515625 45.75 -82.515625 C 39.644531 -82.515625 34.539062 -79.929688 30.4375 -74.765625 C 26.332031 -69.609375 24.101562 -62.515625 23.75 -53.484375 Z M 63.953125 -53.484375 "/></g></g></g><g clip-path="url(#235c4e4272)"><g clip-path="url(#b5997d8f32)"><path fill="#ff0000" d="M 497.953125 290.820312 L 574.75 290.820312 L 574.75 359.765625 L 497.953125 359.765625 Z M 497.953125 290.820312 " fill-opacity="1" fill-rule="nonzero"/></g></g></svg>