<svg width="23" height="23" viewBox="0 0 23 23" fill="none" xmlns="http://www.w3.org/2000/svg">
<path d="M21.1863 19.5887C21.8913 18.6437 22.3751 17.5524 22.602 16.3953C22.8289 15.2383 22.7931 14.0451 22.4973 12.9037C22.2014 11.7624 21.653 10.7021 20.8926 9.80096C20.1322 8.89987 19.1791 8.18103 18.1038 7.6975C17.8695 6.34986 17.3312 5.07335 16.5297 3.96494C15.7282 2.85654 14.6846 1.94541 13.4781 1.30078C12.2717 0.656159 10.9342 0.295002 9.56732 0.244753C8.2004 0.194505 6.84001 0.456486 5.58952 1.01079C4.33903 1.5651 3.23133 2.39714 2.3506 3.44371C1.46987 4.49027 0.83927 5.72382 0.506723 7.05062C0.174177 8.37742 0.148431 9.76257 0.431442 11.1008C0.714452 12.439 1.29877 13.6952 2.14001 14.7737L0.576255 16.3263C0.420153 16.4845 0.314407 16.6853 0.272361 16.9036C0.230315 17.1218 0.253853 17.3476 0.340005 17.5525C0.424403 17.7579 0.567725 17.9338 0.751911 18.0579C0.936096 18.1821 1.1529 18.2489 1.37501 18.25H7.77626C8.41373 19.5939 9.4188 20.7298 10.6751 21.5262C11.9314 22.3226 13.3876 22.7469 14.875 22.75H21.625C21.8471 22.7489 22.0639 22.6821 22.2481 22.5579C22.4323 22.4338 22.5756 22.2579 22.66 22.0525C22.7462 21.8476 22.7697 21.6218 22.7276 21.4036C22.6856 21.1853 22.5799 20.9845 22.4238 20.8263L21.1863 19.5887ZM7.00001 14.875C7.00155 15.2517 7.03164 15.6278 7.09001 16H4.08626L4.48001 15.6175C4.58545 15.5129 4.66914 15.3885 4.72626 15.2514C4.78337 15.1143 4.81278 14.9673 4.81278 14.8187C4.81278 14.6702 4.78337 14.5232 4.72626 14.3861C4.66914 14.249 4.58545 14.1246 4.48001 14.02C3.84951 13.3964 3.34966 12.6534 3.00969 11.8344C2.66972 11.0154 2.49645 10.1368 2.50001 9.25C2.50001 7.45979 3.21116 5.7429 4.47704 4.47703C5.74291 3.21116 7.45979 2.5 9.25001 2.5C10.6469 2.4916 12.0113 2.92118 13.1514 3.72835C14.2915 4.53551 15.15 5.67967 15.6063 7C15.3588 7 15.1225 7 14.875 7C12.7864 7 10.7834 7.82968 9.30654 9.30653C7.82969 10.7834 7.00001 12.7864 7.00001 14.875ZM18.8575 20.5L18.9138 20.5562H14.875C13.5738 20.5539 12.3136 20.1005 11.3091 19.2733C10.3047 18.4461 9.61807 17.2962 9.36633 16.0195C9.11458 14.7428 9.31324 13.4184 9.92847 12.2718C10.5437 11.1251 11.5374 10.2273 12.7404 9.73116C13.9433 9.23503 15.2811 9.17131 16.5258 9.55086C17.7704 9.9304 18.845 10.7297 19.5664 11.8127C20.2878 12.8956 20.6115 14.1952 20.4822 15.49C20.353 16.7848 19.7788 17.9948 18.8575 18.9137C18.6455 19.1215 18.5242 19.4045 18.52 19.7013C18.5206 19.8501 18.5508 19.9973 18.6087 20.1344C18.6666 20.2716 18.7512 20.3958 18.8575 20.5Z" fill="#BDBDBD"/>
</svg>
