<svg width="25" height="25" viewBox="0 0 25 25" fill="none" xmlns="http://www.w3.org/2000/svg">
<path fill-rule="evenodd" clip-rule="evenodd" d="M12.8425 3.18896C7.87197 3.18896 3.84253 7.2184 3.84253 12.189C3.84253 17.1595 7.87197 21.189 12.8425 21.189H17.3425C18.7404 21.189 19.4393 21.189 19.9906 20.9606C20.7257 20.6561 21.3097 20.0721 21.6142 19.337C21.8425 18.7857 21.8425 18.0868 21.8425 16.689V12.189C21.8425 7.2184 17.8131 3.18896 12.8425 3.18896ZM8.84253 11.189C8.84253 10.6367 9.29024 10.189 9.84253 10.189H15.8425C16.3948 10.189 16.8425 10.6367 16.8425 11.189C16.8425 11.7412 16.3948 12.189 15.8425 12.189H9.84253C9.29024 12.189 8.84253 11.7413 8.84253 11.189ZM11.8425 15.189C11.8425 14.6367 12.2902 14.189 12.8425 14.189H15.8425C16.3948 14.189 16.8425 14.6367 16.8425 15.189C16.8425 15.7412 16.3948 16.189 15.8425 16.189H12.8425C12.2902 16.189 11.8425 15.7412 11.8425 15.189Z" fill="white"/>
</svg>
