<svg width="25" height="25" viewBox="0 0 25 25" fill="none" xmlns="http://www.w3.org/2000/svg">
<path fill-rule="evenodd" clip-rule="evenodd" d="M3.10544 5.77475C2.51965 6.36054 2.51965 7.30335 2.51965 9.18896V15.189C2.51965 17.0746 2.51965 18.0174 3.10544 18.6032C3.69123 19.189 4.63404 19.189 6.51965 19.189H18.5197C20.4053 19.189 21.3481 19.189 21.9339 18.6032C22.5197 18.0174 22.5197 17.0746 22.5197 15.189V9.18896C22.5197 7.30335 22.5197 6.36054 21.9339 5.77475C21.3481 5.18896 20.4053 5.18896 18.5197 5.18896H6.51965C4.63404 5.18896 3.69123 5.18896 3.10544 5.77475ZM5.51965 7.18896C4.96737 7.18896 4.51965 7.63668 4.51965 8.18896C4.51965 8.74125 4.96737 9.18896 5.51965 9.18896H7.51965C8.07194 9.18896 8.51965 8.74125 8.51965 8.18896C8.51965 7.63668 8.07194 7.18896 7.51965 7.18896H5.51965ZM16.5197 16.189C16.5197 15.6367 16.9674 15.189 17.5197 15.189H19.5197C20.0719 15.189 20.5197 15.6367 20.5197 16.189C20.5197 16.7413 20.0719 17.189 19.5197 17.189H17.5197C16.9674 17.189 16.5197 16.7413 16.5197 16.189ZM13.5197 12.189C13.5197 12.7412 13.0719 13.189 12.5197 13.189C11.9674 13.189 11.5197 12.7412 11.5197 12.189C11.5197 11.6367 11.9674 11.189 12.5197 11.189C13.0719 11.189 13.5197 11.6367 13.5197 12.189ZM15.5197 12.189C15.5197 13.8458 14.1765 15.189 12.5197 15.189C10.8628 15.189 9.51965 13.8458 9.51965 12.189C9.51965 10.5321 10.8628 9.18896 12.5197 9.18896C14.1765 9.18896 15.5197 10.5321 15.5197 12.189Z" fill="white"/>
</svg>
