<svg width="20" height="21" viewBox="0 0 20 21" fill="none" xmlns="http://www.w3.org/2000/svg">
<path fill-rule="evenodd" clip-rule="evenodd" d="M9.67629 2.16666C5.2527 2.16666 1.66667 5.67348 1.66667 9.99937C1.66667 14.3253 5.2527 17.8321 9.67629 17.8321C11.5682 17.8321 13.307 17.1906 14.6775 16.1179L17.2809 18.6572L17.3501 18.7155C17.5919 18.8904 17.9345 18.8705 18.1532 18.6561C18.3938 18.4202 18.3933 18.0383 18.1521 17.803L15.5793 15.2936C16.8875 13.8995 17.6859 12.0406 17.6859 9.99937C17.6859 5.67348 14.0999 2.16666 9.67629 2.16666ZM9.67628 3.3731C13.4185 3.3731 16.4522 6.33978 16.4522 9.99937C16.4522 13.659 13.4185 16.6256 9.67628 16.6256C5.93405 16.6256 2.90036 13.659 2.90036 9.99937C2.90036 6.33978 5.93405 3.3731 9.67628 3.3731Z" fill="#007AFF"/>
</svg>
