<svg width="25" height="20" viewBox="0 0 25 20" fill="none" xmlns="http://www.w3.org/2000/svg">
<path d="M2.5 20C1.8125 20 1.22417 19.7554 0.735 19.2662C0.245833 18.7771 0.000833333 18.1883 0 17.5V2.5C0 1.8125 0.245 1.22417 0.735 0.735C1.225 0.245833 1.81333 0.000833333 2.5 0H22.5C23.1875 0 23.7762 0.245 24.2662 0.735C24.7562 1.225 25.0008 1.81333 25 2.5V17.5C25 18.1875 24.7554 18.7762 24.2662 19.2662C23.7771 19.7562 23.1883 20.0008 22.5 20H2.5ZM2.5 17.5H22.5V5H2.5V17.5ZM11.1875 12.0625L15.5312 7.71875C15.7812 7.46875 16.0833 7.34375 16.4375 7.34375C16.7917 7.34375 17.0937 7.46875 17.3437 7.71875C17.5937 7.96875 17.7187 8.27083 17.7187 8.625C17.7187 8.97917 17.5937 9.28125 17.3437 9.53125L12.0625 14.8125C11.8125 15.0625 11.5208 15.1875 11.1875 15.1875C10.8542 15.1875 10.5625 15.0625 10.3125 14.8125L7.65625 12.1562C7.40625 11.9062 7.28125 11.6042 7.28125 11.25C7.28125 10.8958 7.40625 10.5937 7.65625 10.3437C7.90625 10.0937 8.20833 9.96875 8.5625 9.96875C8.91667 9.96875 9.21875 10.0937 9.46875 10.3437L11.1875 12.0625Z" fill="#544C4C"/>
</svg>
